<svg width="16" height="16" viewBox="0 0 16 16" fill="none" xmlns="http://www.w3.org/2000/svg">
    <path d="M8 0C7.44772 0 7 0.44772 7 1V6.5C6.44772 6.5 6 7.44772 6 8C6 8.55228 6.44772 9 7 9H9C9.55228 9 10 8.55228 10 8C10 7.44772 9.55228 6.5 9 6.5V1C9 0.44772 8.55228 0 8 0ZM8 1.5H9V6.5H8V1.5ZM5 2C4.44772 2 4 2.44772 4 3C4 3.55228 4.44772 4 5 4H7C7.55228 4 8 3.55228 8 3C8 2.44772 7.55228 2 7 2H5ZM11 10C10.4477 10 10 10.4477 10 11C10 11.5523 10.4477 12 11 12H13C13.5523 12 14 11.5523 14 11C14 10.4477 13.5523 10 13 10H11ZM5 9C4.44772 9 4 9.44772 4 10C4 10.5523 4.44772 11 5 11H7C7.55228 11 8 10.5523 8 10C8 9.44772 7.55228 9 7 9H5ZM1 5C0.447715 5 0 5.44772 0 6C0 6.55228 0.447715 7 1 7H3C3.55228 7 4 6.55228 4 6C4 5.44772 3.55228 5 3 5H1Z" fill="#637381"/>
</svg>