<svg width="16" height="16" viewBox="0 0 16 16" fill="none" xmlns="http://www.w3.org/2000/svg">
  <!-- Coffee Bean -->
  <ellipse cx="5" cy="5" rx="2" ry="3" fill="#637381"/>
  <path d="M4 2C4.5 3 5.5 3 6 4" stroke="#637381" stroke-width="0.5"/>
  
  <!-- Fruit Slice -->
  <circle cx="11" cy="11" r="3" fill="#637381"/>
  <path d="M11 8V11H14" stroke="#637381" stroke-width="0.5"/>
  <path d="M11 8A3 3 0 0 1 14 11" stroke="#637381" stroke-width="0.5"/>
  <path d="M8 11A3 3 0 0 1 11 8" stroke="#637381" stroke-width="0.5"/>
  
  <!-- Cup Plate -->
  <rect x="1" y="13" width="14" height="1" rx="0.5" fill="#637381"/>
  
  <!-- Coffee Cup -->
  <path d="M4 12C4 10 6 9 8 9C10 9 12 10 12 12H4Z" fill="#637381"/>
  <path d="M6 8.5C6.5 8.8 7.5 8.8 8 8.5" stroke="#637381" stroke-width="0.5"/>
</svg>

